<?xml version="1.0" encoding="UTF-8" standalone="no"?>
<!DOCTYPE svg PUBLIC "-//W3C//DTD SVG 1.1//EN" "http://www.w3.org/Graphics/SVG/1.1/DTD/svg11.dtd">
<svg xmlns="http://www.w3.org/2000/svg" version="1.1" viewBox="0.00 0.00 512.00 512.00">
<path fill="#e3e6eb" d="
  M 250.52 0.00
  L 260.60 0.00
  C 304.03 2.41 341.55 27.79 359.94 67.17
  Q 360.16 67.64 359.79 68.02
  L 338.27 89.53
  A 1.18 1.15 22.2 0 1 337.41 89.88
  Q 329.80 89.82 322.29 89.88
  Q 316.13 89.92 312.94 91.35
  C 302.86 95.87 301.58 109.66 310.34 116.70
  A 0.48 0.47 42.3 0 1 310.38 117.41
  L 206.47 221.35
  Q 206.23 221.59 206.03 221.31
  L 204.00 218.32
  A 1.11 1.08 78.0 0 0 203.33 217.87
  Q 202.66 217.72 202.82 217.04
  Q 202.94 216.51 202.57 216.13
  C 199.04 212.42 195.37 211.06 189.95 211.03
  Q 165.28 210.93 140.67 211.02
  A 0.33 0.32 0.0 0 1 140.34 210.70
  L 140.36 180.38
  Q 140.36 179.92 140.81 179.92
  Q 165.73 179.81 190.52 179.72
  Q 200.66 179.68 204.82 171.28
  C 208.36 164.13 204.86 154.21 197.22 151.19
  Q 194.17 149.99 187.11 150.00
  Q 163.92 150.03 140.71 149.99
  A 0.44 0.44 0.0 0 1 140.28 149.55
  L 140.51 120.44
  Q 140.51 119.88 141.07 119.88
  Q 163.93 119.82 186.72 119.86
  Q 194.17 119.87 197.12 118.72
  C 209.72 113.76 209.20 94.70 196.35 90.66
  Q 193.65 89.81 185.57 89.85
  Q 164.67 89.95 143.77 89.81
  Q 143.23 89.81 143.36 89.28
  C 155.45 38.38 198.32 2.95 250.52 0.00
  Z"
/>
<rect fill="#e3e6eb" x="-305.64" y="-15.00" transform="translate(243.14,248.30) rotate(-45.0)" width="611.28" height="30.00" rx="14.94"/>
<path fill="#e3e6eb" d="
  M 370.45 185.36
  L 370.45 210.70
  A 0.30 0.30 0.0 0 1 370.15 211.00
  L 344.81 211.00
  A 0.30 0.30 0.0 0 1 344.59 210.49
  L 369.94 185.14
  A 0.30 0.30 0.0 0 1 370.45 185.36
  Z"
/>
<path fill="#e3e6eb" d="
  M 79.86 239.99
  Q 71.12 239.87 57.50 240.00
  C 40.75 240.16 34.99 218.06 50.33 211.27
  Q 53.14 210.03 58.88 210.02
  Q 74.77 210.00 90.67 209.98
  Q 98.26 209.97 101.62 211.41
  C 109.68 214.89 110.47 221.76 110.46 230.41
  Q 110.43 253.45 110.46 276.50
  Q 110.49 294.71 114.85 312.37
  Q 114.97 312.83 114.63 313.17
  L 91.53 336.28
  Q 91.03 336.77 90.80 336.11
  C 83.41 315.62 80.61 295.67 80.50 274.00
  Q 80.41 257.30 80.45 240.59
  Q 80.46 240.00 79.86 239.99
  Z"
/>
<path fill="#e3e6eb" d="
  M 357.13 512.00
  L 153.64 512.00
  Q 144.39 510.26 141.56 502.73
  C 138.50 494.59 142.39 485.46 150.66 482.79
  Q 153.17 481.98 159.92 481.99
  Q 199.93 482.04 239.94 481.98
  Q 240.44 481.98 240.44 481.49
  L 240.44 451.76
  Q 240.44 451.33 240.01 451.29
  Q 185.94 446.04 144.10 411.81
  Q 143.65 411.44 144.06 411.03
  L 164.70 390.38
  A 0.39 0.38 41.4 0 1 165.21 390.35
  C 204.98 421.90 258.33 430.54 305.75 412.94
  C 356.55 394.09 393.11 347.74 399.45 293.46
  Q 400.30 286.16 400.38 273.51
  Q 400.51 251.99 400.42 230.47
  Q 400.39 222.10 401.87 218.72
  C 404.93 211.75 410.87 210.01 418.50 209.99
  Q 436.01 209.93 453.50 209.95
  C 474.37 209.97 474.44 239.72 454.25 239.83
  Q 442.58 239.89 430.91 240.01
  Q 430.38 240.01 430.39 240.54
  Q 430.64 273.76 430.24 285.00
  Q 429.26 313.00 418.03 341.51
  C 394.02 402.49 336.93 444.97 270.97 451.17
  A 0.58 0.58 0.0 0 0 270.45 451.75
  L 270.43 481.63
  A 0.38 0.37 -90.0 0 0 270.80 482.01
  Q 311.35 481.98 351.95 482.02
  Q 358.74 482.02 361.82 483.44
  C 369.50 486.96 372.50 496.32 368.69 503.96
  Q 365.41 510.52 357.13 512.00
  Z"
/>
<path fill="#e3e6eb" d="
  M 140.57 286.22
  L 140.29 241.39
  A 0.42 0.42 0.0 0 1 140.71 240.97
  L 185.89 240.91
  A 0.42 0.42 0.0 0 1 186.19 241.63
  L 141.29 286.51
  A 0.42 0.42 0.0 0 1 140.57 286.22
  Z"
/>
<path fill="#e3e6eb" d="
  M 370.38 277.74
  C 369.62 371.71 262.48 425.01 186.70 369.02
  A 0.40 0.40 0.0 0 1 186.66 368.42
  L 313.79 241.30
  Q 314.08 241.00 314.50 241.00
  L 369.96 241.00
  Q 370.42 241.00 370.42 241.45
  Q 370.52 259.68 370.38 277.74
  Z"
/>
</svg>
