<?xml version="1.0" encoding="UTF-8" standalone="no"?>
<!DOCTYPE svg PUBLIC "-//W3C//DTD SVG 1.1//EN" "http://www.w3.org/Graphics/SVG/1.1/DTD/svg11.dtd">
<svg xmlns="http://www.w3.org/2000/svg" version="1.1" viewBox="0.00 0.00 512.00 512.00">
<path fill="#e3e6eb" d="
  M 0.00 357.50
  L 0.00 154.45
  Q 2.01 141.43 12.46 137.51
  Q 16.67 135.93 27.73 135.94
  Q 60.67 135.95 93.66 135.97
  Q 94.20 135.97 94.20 136.51
  Q 94.23 178.02 94.20 219.41
  C 94.20 225.86 94.55 231.27 100.49 233.95
  Q 105.56 236.25 110.44 233.74
  C 115.71 231.03 116.25 226.19 116.25 220.22
  Q 116.24 177.10 116.25 133.99
  A 1.00 0.99 -18.0 0 1 116.67 133.18
  Q 201.95 74.29 287.23 15.46
  C 298.07 7.98 314.81 13.20 319.59 25.60
  Q 321.01 29.29 321.01 37.08
  Q 321.02 254.66 321.01 472.25
  Q 321.01 482.66 319.87 486.14
  C 316.69 495.83 305.42 501.89 295.54 499.56
  Q 291.63 498.63 284.83 493.96
  Q 200.55 436.06 116.29 378.15
  C 114.59 376.98 110.95 376.44 108.50 376.44
  Q 68.03 376.39 27.56 376.45
  Q 17.31 376.46 13.12 374.94
  Q 2.10 370.96 0.00 357.50
  Z
  M 116.66 264.39
  A 11.04 11.04 0.0 0 0 105.62 253.35
  A 11.04 11.04 0.0 0 0 94.58 264.39
  A 11.04 11.04 0.0 0 0 105.62 275.43
  A 11.04 11.04 0.0 0 0 116.66 264.39
  Z
  M 101.20 289.42
  C 92.66 292.75 92.41 303.46 99.14 309.02
  C 106.39 314.99 116.47 309.71 116.49 300.56
  C 116.49 295.62 114.44 291.28 109.65 289.39
  Q 105.47 287.75 101.20 289.42
  Z
  M 115.7405 340.5434
  A 10.89 10.83 19.1 0 0 108.9938 326.7462
  A 10.89 10.83 19.1 0 0 95.1595 333.4166
  A 10.89 10.83 19.1 0 0 101.9062 347.2138
  A 10.89 10.83 19.1 0 0 115.7405 340.5434
  Z"
/>
<path fill="#e3e6eb" d="
  M 446.22 279.89
  A 6.11 6.10 -45.0 0 0 437.58 279.90
  Q 419.99 297.54 401.25 316.17
  Q 397.08 320.31 394.10 321.30
  C 388.46 323.16 382.57 320.92 380.06 315.40
  C 377.13 308.93 380.30 304.41 385.14 299.55
  Q 403.69 280.95 421.24 263.45
  A 6.06 6.06 0.0 0 0 421.24 254.87
  Q 403.54 237.22 384.86 218.48
  Q 381.06 214.68 379.99 212.34
  C 375.61 202.82 385.58 192.93 395.09 197.27
  Q 397.44 198.34 401.21 202.10
  Q 420.06 220.92 437.71 238.59
  A 5.93 5.93 0.0 0 0 446.10 238.58
  Q 463.74 220.90 482.53 202.17
  Q 486.37 198.34 488.73 197.26
  C 498.27 192.91 508.24 202.88 503.79 212.41
  Q 502.71 214.72 498.93 218.51
  Q 480.19 237.29 462.59 254.86
  A 6.09 6.08 45.0 0 0 462.59 263.47
  Q 480.11 280.96 498.80 299.69
  C 503.29 304.19 506.41 308.51 504.09 314.54
  Q 502.05 319.86 496.56 321.44
  C 490.76 323.10 486.87 320.51 482.59 316.23
  Q 463.83 297.49 446.22 279.89
  Z"
/>
</svg>
