<?xml version="1.0" encoding="UTF-8"?>
<svg width="800px" height="800px" viewBox="0 0 24 24" xmlns="http://www.w3.org/2000/svg">
<path fill="#e3e6eb" d="m23 4c0-1.6568-1.3431-3-3-3h-4c-0.5523 0-1 0.44772-1 1s0.4477 1 1 1h4c0.5523 0 1 0.44772 1 1v4c0 0.55228 0.4477 1 1 1s1-0.44772 1-1v-4z"/>
<path fill="#e3e6eb" d="m23 16c0-0.5523-0.4477-1-1-1s-1 0.4477-1 1v4c0 0.5523-0.4477 1-1 1h-4c-0.5523 0-1 0.4477-1 1s0.4477 1 1 1h4c1.6569 0 3-1.3431 3-3v-4z"/>
<path fill="#e3e6eb" d="m4 21c-0.55228 0-1-0.4477-1-1v-4c0-0.5523-0.44772-1-1-1s-1 0.4477-1 1v4c0 1.6569 1.3432 3 3 3h4c0.55228 0 1-0.4477 1-1s-0.44772-1-1-1h-4z"/>
<path fill="#e3e6eb" d="m1 8c0 0.55228 0.44772 1 1 1s1-0.44772 1-1v-4c0-0.55228 0.44772-1 1-1h4c0.55228 0 1-0.44772 1-1s-0.44772-1-1-1h-4c-1.6568 0-3 1.3432-3 3v4z"/>
<path fill="#e3e6eb" d="M11 6C11 5.44772 10.5523 5 10 5H6C5.44772 5 5 5.44772 5 6V10C5 10.5523 5.44772 11 6 11H10C10.5523 11 11 10.5523 11 10V6ZM9 7.5C9 7.22386 8.77614 7 8.5 7H7.5C7.22386 7 7 7.22386 7 7.5V8.5C7 8.77614 7.22386 9 7.5 9H8.5C8.77614 9 9 8.77614 9 8.5V7.5Z" clip-rule="evenodd" fill="#fff" fill-rule="evenodd"/>
<path fill="#e3e6eb" d="m18 13c0.5523 0 1 0.4477 1 1v4c0 0.5523-0.4477 1-1 1h-4c-0.5523 0-1-0.4477-1-1v-4c0-0.5523 0.4477-1 1-1h4zm-3 2.5c0-0.2761 0.2239-0.5 0.5-0.5h1c0.2761 0 0.5 0.2239 0.5 0.5v1c0 0.2761-0.2239 0.5-0.5 0.5h-1c-0.2761 0-0.5-0.2239-0.5-0.5v-1z" clip-rule="evenodd" fill="#fff" fill-rule="evenodd"/>
<path fill="#e3e6eb" d="m14 5c-0.5523 0-1 0.44772-1 1 0 0.55229 0.4477 1 1 1h2.5c0.2761 0 0.5 0.22386 0.5 0.5v2.5c0 0.5523 0.4477 1 1 1s1-0.4477 1-1v-4c0-0.55228-0.4477-1-1-1h-4z"/>
<path fill="#e3e6eb" d="m14 8c-0.5523 0-1 0.44771-1 1v1c0 0.5523 0.4477 1 1 1s1-0.4477 1-1v-1c0-0.55228-0.4477-1-1-1z"/>
<path fill="#e3e6eb" d="m6 13c-0.55228 0-1 0.4477-1 1v2c0 0.5523 0.44772 1 1 1 0.55229 0 1-0.4477 1-1v-0.5c0-0.2761 0.22386-0.5 0.5-0.5h2.5c0.5523 0 1-0.4477 1-1s-0.4477-1-1-1h-4z"/>
<path fill="#e3e6eb" d="m10 17c-0.55229 0-1 0.4477-1 1s0.44771 1 1 1c0.5523 0 1-0.4477 1-1s-0.4477-1-1-1z"/>
</svg>
